<svg width="20" height="20" viewBox="0 0 27 27" fill="none" xmlns="http://www.w3.org/2000/svg">
<path d="M13.5 0.421875C6.27539 0.421875 0.421875 6.27539 0.421875 13.5C0.421875 20.7246 6.27539 26.5781 13.5 26.5781C20.7246 26.5781 26.5781 20.7246 26.5781 13.5C26.5781 6.27539 20.7246 0.421875 13.5 0.421875ZM19.9125 16.933C20.1604 17.1809 20.1604 17.5816 19.9125 17.8295L17.8242 19.9125C17.5764 20.1604 17.1756 20.1604 16.9277 19.9125L13.5 16.4531L10.067 19.9125C9.81914 20.1604 9.41836 20.1604 9.17051 19.9125L7.0875 17.8242C6.83965 17.5764 6.83965 17.1756 7.0875 16.9277L10.5469 13.5L7.0875 10.067C6.83965 9.81914 6.83965 9.41836 7.0875 9.17051L9.17578 7.08223C9.42363 6.83438 9.82441 6.83438 10.0723 7.08223L13.5 10.5469L16.933 7.0875C17.1809 6.83965 17.5816 6.83965 17.8295 7.0875L19.9178 9.17578C20.1656 9.42363 20.1656 9.82441 19.9178 10.0723L16.4531 13.5L19.9125 16.933Z" fill="#FF0000"/>
</svg>
