<svg width="60" height="48" viewBox="0 0 60 48" fill="none" xmlns="http://www.w3.org/2000/svg">
<g id="Frame">
<mask id="mask0_13_259" style="mask-type:alpha" maskUnits="userSpaceOnUse" x="2" y="-10" width="56" height="58">
<g id="mask0 1">
<path id="Vector" fill-rule="evenodd" clip-rule="evenodd" d="M38.5719 36.8165C39.1666 33.5301 42.1898 30.0545 43.5582 28.625C44.203 27.9523 44.7904 27.2305 45.2776 26.4457C46.8824 23.846 47.7779 20.8048 47.7063 17.5605C47.5343 8.64017 39.9403 1.2825 30.5552 0.939144C20.3749 0.574765 12 8.29681 12 17.8828C12 20.938 12.8525 23.811 14.3427 26.2845C14.8657 27.1464 15.5104 27.9383 16.2125 28.674C17.6096 30.1456 20.5612 33.5651 21.1415 36.8095C21.2561 37.4332 21.8078 37.8956 22.474 37.8956H37.2466C37.9057 37.9026 38.4573 37.4402 38.5719 36.8165Z" fill="white" stroke="black" stroke-width="20" stroke-linecap="round" stroke-linejoin="round"/>
</g>
</mask>
<g mask="url(#mask0_13_259)">
<g id="Group">
<path id="Vector_2" fill-rule="evenodd" clip-rule="evenodd" d="M30.7691 39.4035V24.6321C30.7691 24.0505 30.2747 23.5811 29.6658 23.5811C29.0568 23.5811 28.5625 24.0505 28.5625 24.6321V39.4035C28.5625 39.9851 29.0568 40.4546 29.6658 40.4546C30.2747 40.4546 30.7691 39.9851 30.7691 39.4035Z" fill="white" stroke="white" stroke-width="2" stroke-miterlimit="10"/>
<path id="Vector_3" d="M25.791 18.6814C25.791 16.5792 27.5892 14.8765 29.803 14.8765C32.0167 14.8765 33.8149 16.5792 33.8149 18.6814C33.8149 20.7836 32.0239 22.4864 29.803 22.4864C27.5892 22.4864 25.791 20.7836 25.791 18.6814Z" stroke="white" stroke-width="2" stroke-linecap="round" stroke-linejoin="round"/>
</g>
<path id="Vector_4" d="M38.5719 38.0161C39.1666 34.6316 42.1898 31.0579 43.5582 29.5793C44.203 28.8856 44.7904 28.1429 45.2776 27.33C46.8824 24.6532 47.7779 21.528 47.7063 18.1855C47.5343 9.00592 39.9403 1.43804 30.5552 1.08767C20.3749 0.709278 12 8.66256 12 18.5288C12 21.6751 12.8525 24.6322 14.3427 27.1829C14.8657 28.0728 15.5104 28.8856 16.2125 29.6424C17.6096 31.156 20.5612 34.6807 21.1415 38.0161C21.2561 38.6608 21.8078 39.1373 22.474 39.1373H37.2466C37.9057 39.1373 38.4573 38.6608 38.5719 38.0161Z" stroke="white" stroke-width="2" stroke-miterlimit="10"/>
<path id="Vector_5" d="M33.5981 46.567H23.9259L34.9576 43.0088H22.5664L36.5366 39.4028" stroke="white" stroke-width="1.5" stroke-linecap="round" stroke-linejoin="round"/>
</g>
</g>
</svg>
